<svg width="28" height="34" viewBox="0 0 28 34" fill="none" xmlns="http://www.w3.org/2000/svg">
<path d="M14.9334 16.7676L0.75168 32.4335C0.603351 32.1369 0.5 31.7304 0.5 31.2388V2.28512C0.5 1.88254 0.56933 1.537 0.675916 1.26216L14.9334 16.7587V16.7676Z" fill="url(#paint0_linear_2316_2017)" stroke="#E6E8F2"/>
<path d="M20.3572 11.8287L25.9681 15.3993C26.6989 15.8643 26.983 16.4177 26.983 16.8945C26.983 17.3702 26.7002 17.922 25.9732 18.3864L20.3967 21.7399L15.9331 16.7691V16.7555L20.3572 11.8287Z" fill="url(#paint1_linear_2316_2017)" stroke="#E6E8F2"/>
<path d="M1.32836 33.0259L15.43 17.573L19.6498 22.2722L2.84275 32.7844C2.35745 33.0219 1.9762 33.1141 1.68159 33.1024C1.55481 33.0973 1.43789 33.073 1.32836 33.0259Z" fill="url(#paint2_linear_2316_2017)" stroke="#E6E8F2"/>
<path d="M2.82227 0.859184C2.8226 0.859391 2.82294 0.859599 2.82328 0.859807L19.6498 11.3842L15.43 16.0835L1.31579 0.616817C1.43897 0.55076 1.5672 0.514023 1.70138 0.503351C1.97812 0.481338 2.34678 0.565207 2.82227 0.859184Z" fill="url(#paint3_linear_2316_2017)" stroke="#E6E8F2"/>
<defs>
<linearGradient id="paint0_linear_2316_2017" x1="14.1041" y1="31.531" x2="-7.77671" y2="11.6508" gradientUnits="userSpaceOnUse">
<stop stop-color="#00A0FF"/>
<stop offset="0.0066" stop-color="#00A1FF"/>
<stop offset="0.2601" stop-color="#00BEFF"/>
<stop offset="0.5122" stop-color="#00D2FF"/>
<stop offset="0.7604" stop-color="#00DFFF"/>
<stop offset="1" stop-color="#00E3FF"/>
</linearGradient>
<linearGradient id="paint1_linear_2316_2017" x1="28.392" y1="16.7622" x2="-0.403071" y2="16.7622" gradientUnits="userSpaceOnUse">
<stop stop-color="#FFE000"/>
<stop offset="0.4087" stop-color="#FFBD00"/>
<stop offset="0.7754" stop-color="#FFA500"/>
<stop offset="1" stop-color="#FF9C00"/>
</linearGradient>
<linearGradient id="paint2_linear_2316_2017" x1="7.76115" y1="24.6815" x2="-21.9109" y2="-2.27759" gradientUnits="userSpaceOnUse">
<stop stop-color="#FF3A44"/>
<stop offset="1" stop-color="#C31162"/>
</linearGradient>
<linearGradient id="paint3_linear_2316_2017" x1="-13.0549" y1="31.8856" x2="0.195068" y2="19.8472" gradientUnits="userSpaceOnUse">
<stop stop-color="#32A071"/>
<stop offset="0.0685" stop-color="#2DA771"/>
<stop offset="0.4762" stop-color="#15CF74"/>
<stop offset="0.8009" stop-color="#06E775"/>
<stop offset="1" stop-color="#00F076"/>
</linearGradient>
</defs>
</svg>
