<svg width="31" height="38" viewBox="0 0 31 38" fill="none" xmlns="http://www.w3.org/2000/svg">
<path d="M24.8035 19.773H24.8033L24.8036 19.7862C24.8811 22.7106 26.2035 24.6819 27.5165 25.9485C28.1704 26.5792 28.8216 27.0354 29.313 27.35C29.4863 27.461 29.6452 27.5577 29.7716 27.6346C29.8007 27.6523 29.828 27.6689 29.8534 27.6844C29.8395 27.7287 29.8236 27.7775 29.8057 27.8308C29.7122 28.1098 29.5666 28.5005 29.3621 28.9687C28.9531 29.9055 28.3121 31.1441 27.3872 32.4172C27.3252 32.5013 27.2634 32.5852 27.2018 32.6689C26.4531 33.6857 25.7316 34.6658 24.9256 35.4187C24.0631 36.2245 23.1553 36.7198 22.0851 36.7198C20.9765 36.7198 20.2272 36.4093 19.3714 36.0547L19.3139 36.0309C18.422 35.6616 17.4326 35.2659 15.9407 35.2659C14.3888 35.2659 13.3712 35.617 12.4661 35.9731C12.3796 36.0071 12.2947 36.0409 12.211 36.0742C11.4258 36.3867 10.7381 36.6604 9.76548 36.7208C8.79162 36.7813 7.85962 36.3022 6.93456 35.4522C6.01078 34.6035 5.16065 33.4462 4.3559 32.2829C2.7871 30.0151 1.38871 26.8109 0.797947 23.4839C0.206481 20.153 0.434617 16.7624 2.03399 14.0672L2.034 14.0672L2.03604 14.0637C3.56932 11.4317 6.34252 9.65952 9.21122 9.65952H9.22673L9.24222 9.65856C10.2912 9.59341 11.3692 9.95206 12.4292 10.3698C12.5817 10.4299 12.7355 10.4919 12.8888 10.5537C13.2507 10.6995 13.6098 10.8442 13.9426 10.9605C14.4161 11.1259 14.9023 11.2588 15.3556 11.2588C15.8172 11.2588 16.338 11.1023 16.8523 10.9152C17.1332 10.813 17.4531 10.6853 17.7823 10.5538C18.0435 10.4495 18.3106 10.3429 18.5688 10.2448C19.8002 9.77689 21.134 9.37847 22.4745 9.5117L22.4992 9.51415H22.524C23.5688 9.51415 26.6136 9.89142 28.6801 12.5139C28.222 12.8356 27.5304 13.3961 26.8582 14.2001C25.8165 15.4463 24.8035 17.3005 24.8035 19.773ZM29.928 27.4193C29.9285 27.4161 29.9289 27.414 29.9291 27.4132C29.9294 27.4119 29.9291 27.4137 29.928 27.4193Z" fill="#0267FF" stroke="#0267FF"/>
<path d="M20.2339 5.64321L20.2338 5.64322C19.073 7.05329 17.3475 8.05792 15.5174 7.97198C15.4218 6.21849 16.3045 4.25443 17.3256 3.10662C18.5968 1.84763 20.4317 0.834288 22.0709 0.55884C22.1606 2.40539 21.3849 4.24503 20.2339 5.64321Z" fill="#0267FF" stroke="#0267FF"/>
</svg>
