<svg width="114" height="36" viewBox="0 0 114 36" fill="none" xmlns="http://www.w3.org/2000/svg">
<path d="M51.4889 5.61134C51.5986 5.36038 51.7536 5.1318 51.9462 4.93704C52.1372 4.74653 52.3637 4.59515 52.6127 4.49138C52.8699 4.38179 53.147 4.32638 53.4265 4.32862C53.7073 4.32673 53.9856 4.38211 54.2442 4.49138C54.4916 4.59619 54.7166 4.74748 54.9069 4.93704C55.0995 5.1318 55.2545 5.36038 55.3642 5.61134C55.4774 5.87178 55.5354 6.15282 55.5347 6.43679C55.5358 6.71829 55.4777 6.99688 55.3642 7.25448C55.2524 7.5008 55.0975 7.72521 54.9069 7.91716C54.7176 8.10795 54.4924 8.25941 54.2442 8.36281C53.9856 8.47208 53.7073 8.52747 53.4265 8.52558C53.147 8.52781 52.8699 8.47241 52.6127 8.36281C52.3629 8.26041 52.1363 8.10886 51.9462 7.91716C51.7556 7.72521 51.6007 7.5008 51.4889 7.25448C51.3753 6.99688 51.3173 6.71829 51.3184 6.43679C51.3177 6.15282 51.3757 5.87178 51.4889 5.61134ZM55.3254 26.538C55.3291 26.7858 55.283 27.0319 55.1898 27.2616C55.0967 27.4913 54.9584 27.6999 54.7831 27.8752C54.6078 28.0504 54.3992 28.1887 54.1695 28.2819C53.9398 28.3751 53.6938 28.4212 53.4459 28.4175C53.196 28.4187 52.9483 28.3699 52.7174 28.2741C52.4901 28.1882 52.2829 28.0563 52.1089 27.8866C51.9357 27.7153 51.7963 27.5128 51.6982 27.2898C51.5962 27.0565 51.5446 26.8043 51.547 26.5496V12.4164C51.545 12.1618 51.5965 11.9096 51.6982 11.6762C51.7967 11.4515 51.9389 11.2486 52.1167 11.0794C52.2949 10.9092 52.5006 10.7703 52.7251 10.6686C52.9591 10.5688 53.2109 10.5174 53.4653 10.5174C53.7197 10.5174 53.9715 10.5688 54.2055 10.6686C54.4257 10.7676 54.6255 10.907 54.7945 11.0794C55.1382 11.4393 55.3286 11.9187 55.3254 12.4164V26.538Z" fill="black"/>
<path d="M63.4671 18.4541V26.5612C63.4725 26.8088 63.4264 27.0548 63.3317 27.2837C63.237 27.5125 63.0957 27.7191 62.9168 27.8904C62.7385 28.0657 62.5271 28.2036 62.2949 28.296C62.0626 28.3885 61.8143 28.4338 61.5643 28.4291C61.3167 28.435 61.0703 28.391 60.84 28.2998C60.6097 28.2086 60.4 28.072 60.2235 27.8982C60.0469 27.7257 59.9079 27.5186 59.8152 27.2899C59.7225 27.0611 59.6781 26.8157 59.6848 26.569V5.97947C59.6777 5.73327 59.722 5.48828 59.8147 5.26011C59.9074 5.03193 60.0467 4.82555 60.2235 4.65411C60.3993 4.47903 60.6087 4.34139 60.8392 4.24947C61.0696 4.15756 61.3163 4.11329 61.5643 4.11932H67.9237C68.9037 4.1147 69.8747 4.30574 70.7798 4.68124C71.6435 5.0404 72.4322 5.5583 73.105 6.20811C73.7669 6.86255 74.2936 7.64075 74.6551 8.49842C75.0371 9.38824 75.2311 10.3474 75.2248 11.3158C75.2321 12.2626 75.0465 13.201 74.6794 14.0737C74.3123 14.9465 73.7713 15.7354 73.0895 16.3924C71.691 17.7264 69.8293 18.4655 67.8966 18.4541H63.4671ZM63.4671 7.85899V14.6757H67.947C68.4177 14.678 68.8837 14.5816 69.315 14.3928C69.7341 14.2038 70.1161 13.9413 70.4427 13.6177C70.769 13.3037 71.0321 12.9301 71.2177 12.5171C71.3992 12.1043 71.4929 11.6582 71.4929 11.2073C71.4957 10.751 71.3978 10.2998 71.2061 9.88577C71.0187 9.48175 70.7556 9.11737 70.431 8.81232C70.1036 8.50642 69.7209 8.26574 69.3033 8.10313C68.8679 7.93081 68.4037 7.8427 67.9354 7.84349L63.4671 7.85899Z" fill="black"/>
<path d="M76.4342 19.5934C76.4258 18.383 76.6672 17.1837 77.1434 16.0708C78.0703 13.8995 79.8023 12.1716 81.9759 11.2499C83.0848 10.7831 84.2759 10.5426 85.4791 10.5426C86.6824 10.5426 87.8735 10.7831 88.9824 11.2499C90.0492 11.7079 91.0186 12.3656 91.8385 13.1876C92.6576 14.0098 93.3149 14.9786 93.7762 16.0437C94.2595 17.1432 94.5115 18.3304 94.5164 19.5314V26.507C94.518 26.7653 94.4665 27.0212 94.3652 27.2588C94.2674 27.4868 94.1296 27.6955 93.9583 27.875C93.7827 28.0558 93.5716 28.1983 93.3383 28.2935C93.093 28.3966 92.8292 28.448 92.5632 28.4447C92.3303 28.4514 92.0985 28.4105 91.8819 28.3245C91.6654 28.2386 91.4686 28.1093 91.3037 27.9447C90.9705 27.6218 90.7642 27.19 90.7224 26.7279C89.9847 27.3271 89.1585 27.8082 88.2732 28.154C87.3775 28.5017 86.4244 28.6778 85.4636 28.6733C84.2566 28.6806 83.0611 28.4379 81.9526 27.9602C79.7791 27.0385 78.0471 25.3107 77.1201 23.1394C76.6488 22.0175 76.4152 20.8101 76.4342 19.5934ZM80.2087 19.5934C80.2045 20.2972 80.347 20.9941 80.6273 21.6396C80.8969 22.2632 81.2807 22.831 81.7588 23.3137C82.2405 23.7932 82.8085 24.1771 83.433 24.4453C84.0825 24.7216 84.7811 24.864 85.4869 24.864C86.1927 24.864 86.8913 24.7216 87.5408 24.4453C88.1652 24.1771 88.7333 23.7932 89.2149 23.3137C89.6932 22.8327 90.0747 22.2644 90.3388 21.6396C90.8814 20.3268 90.8814 18.8524 90.3388 17.5395C89.8038 16.2823 88.8002 15.2829 87.5408 14.7532C86.2253 14.2106 84.7485 14.2106 83.433 14.7532C82.8082 15.0173 82.2399 15.3988 81.7588 15.877C81.2826 16.3569 80.899 16.9205 80.6273 17.5395C80.3442 18.1896 80.2016 18.8922 80.2087 19.6012V19.5934Z" fill="black"/>
<path d="M105.061 22.1744L109.77 11.6762C109.877 11.4441 110.029 11.2349 110.215 11.06C110.392 10.8945 110.599 10.7631 110.824 10.6725C111.047 10.5855 111.285 10.5408 111.525 10.5407C111.779 10.5427 112.029 10.601 112.258 10.7112C112.49 10.8221 112.701 10.973 112.881 11.1569C113.05 11.336 113.182 11.5467 113.269 11.7769C113.361 12.0113 113.403 12.2621 113.393 12.5135C113.383 12.7649 113.321 13.0116 113.211 13.2379L103.759 33.967C103.65 34.1994 103.499 34.4096 103.313 34.587C102.95 34.9257 102.469 35.1116 101.972 35.1063C101.716 35.1066 101.463 35.0483 101.232 34.9358C101.012 34.8464 100.816 34.7077 100.658 34.5303C100.5 34.3529 100.385 34.1416 100.322 33.9127C100.196 33.4233 100.249 32.9049 100.473 32.4517L103.058 26.6387L96.9811 13.2147C96.8685 12.9837 96.8064 12.7314 96.7989 12.4745C96.7928 12.2284 96.8349 11.9835 96.9229 11.7537C97.0109 11.5239 97.1425 11.3134 97.3105 11.1336C97.4864 10.9482 97.6954 10.797 97.9266 10.688C98.154 10.5781 98.4027 10.5199 98.6552 10.5175C98.8968 10.5167 99.1364 10.5628 99.3605 10.6531C99.5856 10.7412 99.7911 10.8729 99.965 11.0406C100.151 11.2212 100.304 11.4338 100.415 11.6684L105.061 22.1744Z" fill="black"/>
<path d="M31.2363 32.3045C30.996 32.7592 30.6456 33.1464 30.217 33.4307C29.7885 33.715 29.2956 33.8874 28.7832 33.9321L12.6309 35.3272C12.0947 35.3727 11.5559 35.2768 11.0684 35.049C10.5808 34.8212 10.1615 34.4695 9.85235 34.029L0.551609 20.7367C0.243919 20.2954 0.057616 19.781 0.0113657 19.2451C-0.0348847 18.7091 0.0605425 18.1704 0.288088 17.683L7.15901 2.99553C7.38615 2.50787 7.73794 2.08876 8.17885 1.78053C8.61976 1.4723 9.13419 1.28586 9.67021 1.24002L16.2582 0.670349L10.0229 8.38222C9.30256 9.27098 8.82823 10.3333 8.64733 11.4629C8.46643 12.5925 8.58529 13.7498 8.99203 14.8191L13.3207 26.1776C13.7305 27.2465 14.4136 28.1891 15.3017 28.9113C16.1898 29.6335 17.2519 30.11 18.3819 30.2932L30.3954 32.2309C30.6738 32.2736 30.9547 32.2982 31.2363 32.3045Z" fill="#2A41CB"/>
<path d="M23.3347 0.0580475L21.645 0.201438C22.1474 0.00961274 22.6913 -0.0465237 23.2223 0.0386757L23.3347 0.0580475Z" fill="#8D21AA"/>
<path d="M41.448 18.2836L33.7787 27.7161C33.5828 27.9564 33.3515 28.1654 33.0928 28.3362L38.1656 17.4853C38.3939 16.9981 38.4898 16.4592 38.4435 15.9231C38.3972 15.387 38.2105 14.8725 37.9021 14.4316L28.6013 1.13928C28.5377 1.04446 28.4664 0.955021 28.3882 0.871887L35.2087 1.96473C35.7405 2.05051 36.2403 2.27473 36.658 2.61485C37.0756 2.95497 37.3965 3.39902 37.5882 3.90238L41.9363 15.2532C42.1284 15.7566 42.1845 16.3019 42.0988 16.8339C42.013 17.366 41.7886 17.866 41.448 18.2836Z" fill="#2A41CB"/>
<path d="M38.1654 17.4853L33.0926 28.3362C32.4513 28.7604 31.6738 28.9278 30.9147 28.8051L18.9012 26.8674C18.3692 26.7824 17.869 26.5585 17.4512 26.2182C17.0334 25.878 16.7128 25.4336 16.5218 24.9298L12.1931 13.5751C12 13.072 11.9431 12.5269 12.0281 11.9948C12.1132 11.4627 12.3372 10.9624 12.6775 10.5446L20.3467 1.116C20.686 0.697837 21.1299 0.376937 21.6333 0.185926L23.323 0.0425415L28.3919 0.856358C28.4701 0.939493 28.5414 1.02892 28.605 1.12375L37.9057 14.4161C38.2164 14.8591 38.4041 15.3765 38.4497 15.9157C38.4953 16.4548 38.3972 16.9964 38.1654 17.4853Z" fill="#4461F2"/>
<path d="M23.3347 0.0580475L21.645 0.201438C22.1474 0.00961274 22.6913 -0.0465237 23.2223 0.0386757L23.3347 0.0580475Z" fill="#8D21AA"/>
</svg>
