<svg width="116" height="116" viewBox="0 0 116 116" fill="none" xmlns="http://www.w3.org/2000/svg">
<g filter="url(#filter0_d_2_220)">
<rect x="18" y="10" width="80" height="80" rx="40" fill="white"/>
</g>
<path d="M77.9999 66.4V53.3C77.9999 44.7 70.9999 37.7 62.3999 37.7H61.6999H58.6999H57.9999C49.3999 37.7 42.3999 44.7 42.3999 53.3V66.4C42.3999 68.8 39.3999 71 40.3999 73H48.5999H71.8999H79.9999C80.8999 71.1 77.9999 68.8 77.9999 66.4Z" fill="#2A41CB"/>
<path d="M60 49.8V51.8" stroke="#C2C9F2" stroke-width="2"/>
<path d="M60 61.8V63.8" stroke="#C2C9F2" stroke-width="2"/>
<path d="M60.5 56.8H59.5C58.1 56.8 57 55.7 57 54.3C57 52.9 58.1 51.8 59.5 51.8H60.5C61.9 51.8 63 52.9 63 54.3" stroke="#C2C9F2" stroke-width="2"/>
<path d="M59.5 56.8H60.5C61.9 56.8 63 57.9 63 59.3C63 60.7 61.9 61.8 60.5 61.8H59.5C58.1 61.8 57 60.7 57 59.3" stroke="#C2C9F2" stroke-width="2"/>
<path d="M40.6998 54.9C43.6821 54.9 46.0998 52.4823 46.0998 49.5C46.0998 46.5177 43.6821 44.1 40.6998 44.1C37.7175 44.1 35.2998 46.5177 35.2998 49.5C35.2998 52.4823 37.7175 54.9 40.6998 54.9Z" fill="#FFAB01" stroke="#FFC400" stroke-width="2"/>
<path d="M46.5 57.6H36V61.3H46.5V57.6Z" fill="#FFAB01" stroke="#FFC400" stroke-width="2"/>
<path d="M45.5 61.6H35V65.3H45.5V61.6Z" fill="#FFAB01" stroke="#FFC400" stroke-width="2"/>
<path d="M46.5 65.3H36V69H46.5V65.3Z" fill="#FFAB01" stroke="#FFC400" stroke-width="2"/>
<path d="M45.5 69.3H35V73H45.5V69.3Z" fill="#FFAB01" stroke="#FFC400" stroke-width="2"/>
<path d="M56.7999 38.1L53.3999 28L60.1999 30.4L66.9999 28L63.5999 38.1" fill="#2A41CB"/>
<path d="M55.2002 37.4H65.1002" stroke="#C2C9F2" stroke-width="2"/>
<defs>
<filter id="filter0_d_2_220" x="0" y="0" width="116" height="116" filterUnits="userSpaceOnUse" color-interpolation-filters="sRGB">
<feFlood flood-opacity="0" result="BackgroundImageFix"/>
<feColorMatrix in="SourceAlpha" type="matrix" values="0 0 0 0 0 0 0 0 0 0 0 0 0 0 0 0 0 0 127 0" result="hardAlpha"/>
<feOffset dy="8"/>
<feGaussianBlur stdDeviation="9"/>
<feColorMatrix type="matrix" values="0 0 0 0 0 0 0 0 0 0 0 0 0 0 0 0 0 0 0.05 0"/>
<feBlend mode="normal" in2="BackgroundImageFix" result="effect1_dropShadow_2_220"/>
<feBlend mode="normal" in="SourceGraphic" in2="effect1_dropShadow_2_220" result="shape"/>
</filter>
</defs>
</svg>
